<?xml version="1.0" standalone="no"?>
<!DOCTYPE svg PUBLIC "-//W3C//DTD SVG 20010904//EN"
 "http://www.w3.org/TR/2001/REC-SVG-20010904/DTD/svg10.dtd">
<svg version="1.0" xmlns="http://www.w3.org/2000/svg"
 width="221.000000pt" height="221.000000pt" viewBox="0 0 221.000000 221.000000"
 preserveAspectRatio="xMidYMid meet">
<metadata>
Created by potrace 1.14, written by Peter Selinger 2001-2017
</metadata>
<g transform="translate(0.000000,221.000000) scale(0.100000,-0.100000)"
fill="#000000" stroke="none">
<path d="M1861 1865 l-123 -165 20 -31 19 -31 24 30 c13 16 71 82 128 146
l104 117 -18 44 c-9 25 -20 47 -24 49 -4 3 -63 -69 -130 -159z"/>
<path d="M1362 1943 c-11 -21 -25 -71 -26 -93 -1 -12 -21 -15 -111 -17 -60 0
-154 -4 -208 -7 -94 -5 -98 -4 -106 17 -5 12 -9 26 -9 30 0 17 -56 67 -65 58
-12 -12 -19 -64 -21 -146 l-1 -70 -55 -28 c-107 -56 -217 -154 -287 -257 -38
-56 -89 -164 -105 -223 -9 -36 -20 -49 -57 -73 -25 -16 -48 -27 -50 -26 -2 2
-8 -3 -13 -12 -5 -9 -13 -14 -19 -11 -5 4 -9 2 -9 -2 0 -5 -20 -19 -45 -33
-25 -14 -45 -28 -45 -32 0 -5 -5 -8 -10 -8 -6 0 -16 -4 -23 -10 -7 -5 -25 -20
-40 -32 l-28 -23 98 -1 c177 -2 213 -11 213 -57 0 -83 64 -256 131 -354 81
-118 199 -217 331 -277 70 -32 197 -70 206 -61 2 2 -7 47 -21 100 -13 52 -21
98 -16 100 4 3 10 1 14 -5 4 -6 11 -8 16 -5 5 4 9 2 9 -3 0 -5 23 -19 50 -31
30 -13 51 -28 52 -39 0 -9 2 -26 3 -37 1 -11 3 -37 4 -57 l1 -38 63 0 c35 1
73 7 87 15 14 8 22 14 19 15 -4 0 0 33 7 73 8 39 17 94 20 120 4 34 15 58 35
80 16 17 29 35 29 39 0 5 7 8 15 8 12 0 14 -8 9 -37 -9 -62 -45 -205 -60 -242
-8 -19 -13 -36 -11 -37 8 -8 126 39 191 74 228 127 383 373 403 639 l6 81 36
17 c39 17 137 24 186 12 17 -4 25 -4 19 0 -6 4 -34 34 -62 66 -29 31 -52 54
-52 50 0 -4 -10 2 -22 14 -52 51 -74 69 -91 76 -9 3 -17 11 -17 17 0 6 -4 8
-10 5 -5 -3 -10 -1 -10 4 0 6 -5 11 -11 11 -16 0 -32 19 -68 85 -61 109 -149
205 -251 275 -61 41 -137 80 -157 80 -8 0 -13 13 -13 38 0 21 -4 63 -10 93 -5
30 -11 66 -12 82 -3 31 -13 35 -26 10z"/>
<path d="M112 1906 c-23 -25 -42 -48 -42 -50 0 -4 131 -100 272 -200 l68 -47
16 34 16 34 -137 134 c-75 74 -140 135 -144 137 -4 1 -27 -18 -49 -42z"/>
<path d="M2055 1698 c-126 -113 -115 -99 -108 -145 3 -24 9 -43 13 -43 4 0 43
27 86 60 84 64 82 61 66 139 l-7 34 -50 -45z"/>
<path d="M48 1566 l-36 -55 74 -36 c41 -19 77 -35 79 -35 8 0 55 74 55 86 0 9
-96 76 -131 92 -3 1 -22 -22 -41 -52z"/>
<path d="M1912 523 l-33 -28 92 -48 91 -48 43 33 c24 18 40 36 37 40 -7 7
-182 78 -192 78 -3 0 -20 -12 -38 -27z"/>
<path d="M365 344 c-33 -25 -61 -49 -63 -53 -1 -4 16 -31 39 -59 l42 -52 59
60 c32 33 58 63 58 66 0 9 -61 84 -68 84 -4 0 -34 -21 -67 -46z"/>
</g>
</svg>
